<svg width="699" height="331" viewBox="0 0 699 331" fill="none" xmlns="http://www.w3.org/2000/svg">
<path d="M373.56 1.37492C372.185 8.20625 370.853 11.1278 368.404 12.7175C367.674 13.1901 365.698 13.9635 364.065 14.3502C358.394 15.8109 357.448 16.0687 357.448 16.3695C357.448 16.7562 359.296 17.4436 363.249 18.5177C369.435 20.1503 370.939 21.6971 372.701 28.6143C373.775 32.653 374.333 33.9419 374.849 33.4693C374.978 33.3404 375.622 31.1063 376.267 28.4854C378.071 21.3533 379.317 20.0644 385.805 18.4318C390.101 17.4006 391.39 16.8851 391.39 16.3695C391.39 15.9398 388.039 14.8228 385.59 14.4361C381.079 13.7916 378.071 11.2567 376.997 7.34697C375.15 0.386742 374.119 -1.3748 373.56 1.37492Z" fill="white"/>
<path d="M394.999 23.8453C394.312 26.595 392.164 28.9581 389.586 29.7314C387.566 30.3329 387.523 30.7626 389.371 31.1063C391.476 31.493 393.882 33.6841 394.398 35.7035C394.741 36.9065 395.085 37.3791 395.687 37.3791C396.288 37.3791 396.632 36.9065 396.976 35.7035C397.491 33.7701 399.811 31.5789 401.788 31.1492C403.463 30.7626 403.291 30.3329 401.272 29.6455C399.253 28.9581 397.878 27.5832 396.417 24.7046L395.343 22.5564L394.999 23.8453Z" fill="white"/>
<path d="M395.687 44.1245C395.687 44.5541 395.859 46.0579 396.073 47.4757C397.362 55.8967 398.007 68.2275 397.663 79.0545C397.534 84.1243 397.319 88.8504 397.233 89.5808C397.147 90.2682 396.933 92.2016 396.804 93.8772C394.999 113.426 389.929 135.338 383.571 151.235C371.412 181.439 353.453 203.307 328.362 218.474C324.967 220.536 322.218 222.384 322.218 222.641C322.218 222.942 322.776 222.985 323.721 222.856C325.569 222.555 334.248 218.732 334.248 218.216C334.248 218.001 334.377 217.872 334.591 217.915C334.763 217.958 335.365 217.743 335.966 217.4C337.556 216.497 339.919 215.166 342.153 214.006C343.227 213.404 344.129 212.803 344.129 212.588C344.129 212.416 344.344 212.244 344.645 212.244C345.032 212.244 349.113 209.709 351.648 207.862C355.042 205.37 363.549 198.324 366.041 195.875C384.817 177.486 396.933 153.469 401.659 125.198C404.365 109.087 404.881 91.729 403.162 75.3166C402.518 68.8719 399.983 53.7915 398.909 49.8387C397.663 45.4134 395.687 41.8474 395.687 44.1245Z" fill="white"/>
<path d="M375.923 49.1942C375.622 49.538 375.493 50.2683 375.622 50.7839C376.052 52.3736 375.107 64.5755 374.162 69.4734C370.123 90.9986 358.007 106.552 340.349 112.996C335.88 114.629 332.744 115.316 325.182 116.433C317.749 117.508 315.043 118.152 310.789 119.914C304.13 122.706 299.489 126.788 297.083 132.03C295.279 135.982 294.549 139.548 294.892 142.771C295.923 152.738 304.817 156.906 316.46 152.867C319.597 151.793 322.389 149.86 324.452 147.282C327.889 143.071 326.514 142.255 321.315 145.434C317.706 147.626 313.453 148.872 311.09 148.442C306.063 147.497 303.872 143.157 306.45 139.248C308.813 135.724 313.797 133.447 320.972 132.631C327.717 131.858 334.248 133.533 339.189 137.271C345.289 141.911 349.887 150.332 350.445 157.937C350.918 164.339 349.07 171.127 344.129 181.095C336.74 196.089 326.041 208.893 309.414 222.555C305.59 225.735 302.626 228.484 302.798 228.656C303.27 229.129 307.61 228.184 307.61 227.625C307.61 227.367 307.739 227.281 307.911 227.41C308.039 227.582 308.813 227.281 309.629 226.809C310.402 226.336 311.047 226.036 311.047 226.207C311.047 226.336 312.207 225.864 313.625 225.09C315.043 224.36 316.203 223.544 316.203 223.329C316.203 223.114 316.374 223.028 316.589 223.157C316.804 223.286 317.191 223.114 317.492 222.77C317.792 222.427 318.179 222.255 318.394 222.384C318.609 222.512 318.78 222.384 318.78 222.169C318.78 221.911 319.038 221.696 319.339 221.696C319.597 221.696 321.315 220.751 323.12 219.634C324.881 218.517 327.287 217.013 328.447 216.326C329.608 215.595 330.853 214.736 331.197 214.392C331.584 214.048 332.443 213.49 333.045 213.146C333.689 212.803 334.763 212.029 335.408 211.428C336.052 210.783 337.384 209.752 338.329 209.065C340.95 207.174 342.153 206.057 347.996 200.214C367.115 181.052 379.102 155.531 382.969 125.843C385.934 103.329 384.602 78.2382 379.274 55.2093C377.771 48.6357 377.212 47.6475 375.923 49.1942Z" fill="white"/>
<path d="M335.494 71.8794C332.4 73.1684 330.768 74.3714 329.092 76.4337C325.096 81.5464 324.581 88.5496 327.846 94.3928C329.393 97.0995 331.541 99.0329 334.677 100.494C336.74 101.439 337.599 101.611 341.337 101.611C345.075 101.611 345.934 101.439 347.996 100.494C351.004 99.0759 353.668 96.3261 355.386 92.846C356.589 90.483 356.761 89.7096 356.761 86.6162C356.761 84.0384 356.503 82.4916 355.773 80.6871C354.57 77.5937 351.39 74.0706 348.34 72.395C346.364 71.3209 345.547 71.1061 341.981 71.0201C338.458 70.8913 337.556 71.0202 335.494 71.8794Z" fill="white"/>
<path d="M143.537 273.584C142.641 273.584 141.809 273.76 141.041 274.112C140.273 274.432 139.601 274.88 139.025 275.456C138.449 276.032 137.985 276.704 137.633 277.472C137.313 278.24 137.153 279.056 137.153 279.92C137.153 280.784 137.313 281.616 137.633 282.416C137.985 283.184 138.449 283.856 139.025 284.432C139.601 285.008 140.273 285.472 141.041 285.824C141.809 286.144 142.641 286.304 143.537 286.304H197.249C199.073 286.304 200.785 286.64 202.385 287.312C203.985 287.984 205.393 288.864 206.609 289.952C207.153 290.496 207.649 291.088 208.097 291.728C208.577 292.368 209.025 293.04 209.441 293.744C210.433 295.664 210.929 297.776 210.929 300.08C210.929 302.352 210.433 304.48 209.441 306.464C208.289 308.704 206.625 310.512 204.449 311.888C202.273 313.232 199.825 313.904 197.105 313.904H137.153H129.713V306.464H137.153H197.105C198.001 306.464 198.833 306.304 199.601 305.984C200.369 305.632 201.041 305.168 201.617 304.592C202.193 304.016 202.641 303.344 202.961 302.576C203.313 301.776 203.489 300.944 203.489 300.08C203.489 299.216 203.313 298.4 202.961 297.632C202.641 296.864 202.193 296.192 201.617 295.616C201.073 295.04 200.417 294.592 199.649 294.272C198.913 293.92 198.113 293.744 197.249 293.744H197.105H143.393C141.217 293.744 139.137 293.2 137.153 292.112C136.609 291.824 136.081 291.504 135.569 291.152C135.057 290.8 134.593 290.4 134.177 289.952C133.569 289.472 133.025 288.912 132.545 288.272C132.097 287.632 131.697 286.976 131.345 286.304C130.801 285.344 130.385 284.336 130.097 283.28C129.841 282.224 129.713 281.152 129.713 280.064V279.776C129.713 278.688 129.841 277.616 130.097 276.56C130.385 275.504 130.801 274.512 131.345 273.584C131.953 272.272 132.769 271.136 133.793 270.176C134.817 269.184 135.937 268.368 137.153 267.728C139.137 266.64 141.265 266.096 143.537 266.096H210.929V273.584H203.489H143.537ZM223.216 313.904H215.728V273.584V266.096H223.216V273.584V286.304V293.744V306.464V313.904ZM235.449 306.464V313.904H228.009V306.464V286.304V266.096H235.449H309.225V273.584H235.449V286.304H300.825V293.744H235.449V306.464ZM321.465 293.744V306.464V313.904H314.025V289.952V286.304V266.096H321.465H381.417C384.137 266.096 386.585 266.784 388.761 268.16C390.937 269.504 392.601 271.312 393.753 273.584C394.745 275.504 395.241 277.616 395.241 279.92C395.241 282.192 394.745 284.32 393.753 286.304C393.337 286.976 392.889 287.632 392.409 288.272C391.961 288.912 391.465 289.472 390.921 289.952C391.465 290.496 391.961 291.088 392.409 291.728C392.889 292.368 393.337 293.04 393.753 293.744C394.745 295.664 395.241 297.776 395.241 300.08V306.464V313.904H387.801V306.464V300.08C387.801 299.216 387.625 298.4 387.273 297.632C386.953 296.864 386.505 296.192 385.929 295.616C385.353 295.04 384.681 294.592 383.913 294.272C383.145 293.92 382.313 293.744 381.417 293.744H321.465ZM321.465 286.304H381.417H382.089H382.233C383.001 286.208 383.737 285.968 384.441 285.584C385.145 285.2 385.753 284.736 386.265 284.192C386.777 283.616 387.177 282.976 387.465 282.272C387.785 281.536 387.945 280.752 387.945 279.92C387.945 279.12 387.785 278.352 387.465 277.616C387.177 276.88 386.777 276.24 386.265 275.696C385.753 275.12 385.145 274.656 384.441 274.304C383.737 273.92 383.001 273.68 382.233 273.584H381.417H321.465V286.304ZM465.657 305.072H417.465L416.265 306.464L409.785 313.904H400.953H400.041L400.953 312.656L406.377 306.464L417.609 293.744L420.729 289.952L423.993 286.304L435.081 273.584L436.713 271.808L441.561 266.096L446.601 271.808L448.089 273.584L459.177 286.304L462.393 289.952L465.657 293.744L476.745 306.464L482.169 312.656L483.273 313.904H482.169H473.385L466.905 306.464L465.657 305.072ZM459.321 297.632L455.769 293.744L452.553 289.952L449.289 286.304L441.561 277.472L433.881 286.304L430.617 289.952L427.353 293.744L423.993 297.632H459.321ZM495.416 306.464V313.904H488.072V273.584V266.096H495.416V273.584V286.304H561.848V273.584V266.096H569.288V286.304V313.904H561.848V306.464V293.744H495.416V306.464Z" fill="white"/>
</svg>
